<svg xmlns="http://www.w3.org/2000/svg" width="1200" height="630" viewBox="0 0 1200 630">
  <rect width="1200" height="630" fill="#0B0B0A"/>
  <g fill="#FEF9EE" opacity="0.08">
    <circle cx="120" cy="120" r="2" fill-opacity="1"/><circle cx="170" cy="120" r="2"/><circle cx="220" cy="120" r="2"/><circle cx="270" cy="120" r="2"/><circle cx="320" cy="120" r="2"/><circle cx="370" cy="120" r="2"/><circle cx="420" cy="120" r="2"/><circle cx="470" cy="120" r="2"/><circle cx="520" cy="120" r="2"/><circle cx="570" cy="120" r="2"/><circle cx="620" cy="120" r="2"/><circle cx="670" cy="120" r="2"/><circle cx="720" cy="120" r="2"/><circle cx="770" cy="120" r="2"/><circle cx="820" cy="120" r="2"/><circle cx="870" cy="120" r="2"/><circle cx="920" cy="120" r="2"/><circle cx="970" cy="120" r="2"/><circle cx="1020" cy="120" r="2"/><circle cx="1070" cy="120" r="2"/>
  </g>
  <g transform="translate(100,150)">
    <rect x="0" y="0" width="72" height="72" rx="16" fill="#E85A3C"/>
    <g fill="none" stroke="#0B0B0A" stroke-width="4" stroke-linejoin="round">
      <path d="M36 14 L58 27 V53 L36 66 L14 53 V27 Z"/>
    </g>
    <text x="96" y="34" font-family="Arial, sans-serif" font-size="28" font-weight="bold" letter-spacing="3" fill="#FEF9EE">OBSIDIAN</text>
    <text x="96" y="60" font-family="Arial, sans-serif" font-size="16" letter-spacing="4" fill="#B9AC9C">TECH SOLUTION</text>
  </g>
  <text x="100" y="320" font-family="Arial, sans-serif" font-size="64" font-weight="bold" fill="#FEF9EE">Websites, apps &amp; software</text>
  <text x="100" y="380" font-family="Arial, sans-serif" font-size="64" font-weight="bold" fill="#E85A3C">that grow your business.</text>
  <text x="100" y="430" font-family="Arial, sans-serif" font-size="22" fill="#B9AC9C">Websites · Web Apps · Mobile Apps · Custom Software · UI/UX · Automation · Maintenance · Consulting</text>
  <g font-family="Arial, sans-serif" font-size="18" fill="#FEF9EE">
    <rect x="100" y="470" width="300" height="56" rx="28" fill="#AB2E14"/>
    <text x="150" y="505" fill="#FFFFFF" font-weight="bold" letter-spacing="1">START A PROJECT →</text>
    <text x="430" y="505" fill="#B9AC9C">obsidiantechsolution.in</text>
  </g>
</svg>
